<?xml version="1.0" encoding="UTF-8"?>
<svg width="205px" height="118px" viewBox="0 0 205 118" version="1.1" xmlns="http://www.w3.org/2000/svg" xmlns:xlink="http://www.w3.org/1999/xlink">
    <!-- Generator: Sketch 48.2 (47327) - http://www.bohemiancoding.com/sketch -->
    <title>corrosion-digital-logo</title>
    <desc>Created with Sketch.</desc>
    <defs></defs>
    <g id="Page-1" stroke="none" stroke-width="1" fill="none" fill-rule="evenodd">
        <g id="corrosion-digital-logo" fill="#000000">
            <path d="M74.5468076,18.6679675 L74.5468076,41.2916202 C69.4273499,34.3792019 61.2116706,29.8981811 51.9493929,29.8981811 C36.4291869,29.8981811 23.8475741,42.479794 23.8475741,58 C23.8475741,73.520206 36.4291869,86.1018189 51.9493929,86.1018189 C61.2116706,86.1018189 69.4273499,81.6207981 74.5468076,74.7083798 L74.5468076,97.3320325 C67.8938648,101.162597 60.1775092,103.353706 51.9493929,103.353706 C26.901233,103.353706 6.5956873,83.04816 6.5956873,58 C6.5956873,32.95184 26.901233,12.6462944 51.9493929,12.6462944 C60.1775092,12.6462944 67.8938648,14.8374027 74.5468076,18.6679675 Z" id="Combined-Shape"></path>
            <g id="Group" transform="translate(39.000000, 32.000000)">
                <path d="M0.587731437,25.0468491 C0.587731437,21.7499576 1.76740714,18.9452981 4.12679394,16.6327866 C6.48618073,14.320275 9.36115198,13.1640366 12.7517939,13.1640366 C16.158061,13.1640366 19.0486571,14.3280874 21.4236689,16.6562241 C23.7674307,18.9843607 24.9392939,21.8437071 24.9392939,25.2343491 C24.9392939,28.6562412 23.7596182,31.5234 21.4002314,33.8359116 C19.0252196,36.1327981 16.1111862,37.2812241 12.6580439,37.2812241 C9.23615183,37.2812241 6.368993,36.1093608 4.05648144,33.7655991 C1.74396987,31.4530875 0.587731437,28.5468666 0.587731437,25.0468491 Z M5.97835644,25.1405991 C5.97835644,27.4218605 6.58772534,29.2265299 7.80648144,30.5546616 C9.05648769,31.8984183 10.7049087,32.5702866 12.7517939,32.5702866 C14.8143042,32.5702866 16.4627253,31.9062307 17.6971064,30.5780991 C18.9314876,29.2499674 19.5486689,27.4765477 19.5486689,25.2577866 C19.5486689,23.0390255 18.9314876,21.2656057 17.6971064,19.9374741 C16.4471002,18.5937174 14.7986792,17.9218491 12.7517939,17.9218491 C10.7361589,17.9218491 9.10336269,18.5937174 7.85335644,19.9374741 C6.60335019,21.2812308 5.97835644,23.0155885 5.97835644,25.1405991 Z M30.5174189,13.7968491 L35.7908564,13.7968491 L35.7908564,15.8359116 C36.7596113,14.8202815 37.6189777,14.124976 38.3689814,13.7499741 C39.1346103,13.3593471 40.0408512,13.1640366 41.0877314,13.1640366 C42.4783634,13.1640366 43.9314739,13.6171571 45.4471064,14.5234116 L43.0330439,19.3515366 C42.0330389,18.632783 41.0564862,18.2734116 40.1033564,18.2734116 C37.2283421,18.2734116 35.7908564,20.4452649 35.7908564,24.7890366 L35.7908564,36.6249741 L30.5174189,36.6249741 L30.5174189,13.7968491 Z M48.4705439,13.7968491 L53.7439814,13.7968491 L53.7439814,15.8359116 C54.7127363,14.8202815 55.5721027,14.124976 56.3221064,13.7499741 C57.0877353,13.3593471 57.9939762,13.1640366 59.0408564,13.1640366 C60.4314884,13.1640366 61.8845989,13.6171571 63.4002314,14.5234116 L60.9861689,19.3515366 C59.9861639,18.632783 59.0096112,18.2734116 58.0564814,18.2734116 C55.1814671,18.2734116 53.7439814,20.4452649 53.7439814,24.7890366 L53.7439814,36.6249741 L48.4705439,36.6249741 L48.4705439,13.7968491 Z M71.6971064,13.7968491 L71.6971064,36.6249741 L66.4236689,36.6249741 L66.4236689,13.7968491 L71.6971064,13.7968491 Z M65.6267939,4.30466158 C65.6267939,3.38278197 65.9627281,2.58591494 66.6346064,1.91403658 C67.3064848,1.24215822 68.1111642,0.906224084 69.0486689,0.906224084 C70.0017987,0.906224084 70.8142906,1.24215822 71.4861689,1.91403658 C72.1580473,2.57028986 72.4939814,3.37496932 72.4939814,4.32809908 C72.4939814,5.28122885 72.1580473,6.09372072 71.4861689,6.76559908 C70.8299157,7.43747744 70.0252362,7.77341158 69.0721064,7.77341158 C68.1189767,7.77341158 67.3064848,7.43747744 66.6346064,6.76559908 C65.9627281,6.09372072 65.6267939,5.27341643 65.6267939,4.30466158 Z M91.6424189,17.6874741 L87.2830439,20.0077866 C86.5955405,18.6015296 85.7439865,17.8984116 84.7283564,17.8984116 C84.243979,17.8984116 83.8299207,18.0585662 83.4861689,18.3788803 C83.1424172,18.6991944 82.9705439,19.1093466 82.9705439,19.6093491 C82.9705439,20.4843535 83.9861588,21.3515323 86.0174189,22.2109116 C88.8143079,23.4140426 90.6971016,24.5234065 91.6658564,25.5390366 C92.6346113,26.5546667 93.1189814,27.9218405 93.1189814,29.6405991 C93.1189814,31.8437351 92.3064896,33.6874667 90.6814814,35.1718491 C89.1033485,36.5781061 87.1971176,37.2812241 84.9627314,37.2812241 C81.1345873,37.2812241 78.4236769,35.4140553 76.8299189,31.6796616 L81.3299189,29.5937241 C81.9549221,30.6874796 82.4314798,31.3827851 82.7596064,31.6796616 C83.4002346,32.2734146 84.165852,32.5702866 85.0564814,32.5702866 C86.8377403,32.5702866 87.7283564,31.7577947 87.7283564,30.1327866 C87.7283564,29.1952819 87.0408633,28.3202906 85.6658564,27.5077866 C85.1346038,27.2421603 84.6033591,26.9843503 84.0721064,26.7343491 C83.5408538,26.4843478 83.0017967,26.2265379 82.4549189,25.9609116 C80.9236613,25.2109078 79.8455471,24.4609153 79.2205439,23.7109116 C78.423665,22.7577818 78.0252314,21.5312316 78.0252314,20.0312241 C78.0252314,18.0468392 78.7049121,16.4062306 80.0642939,15.1093491 C81.4549259,13.8124676 83.142409,13.1640366 85.1267939,13.1640366 C88.0486835,13.1640366 90.2205368,14.671834 91.6424189,17.6874741 Z M103.126794,13.7968491 L103.126794,36.6249741 L97.8533564,36.6249741 L97.8533564,13.7968491 L103.126794,13.7968491 Z M97.0564814,4.30466158 C97.0564814,3.38278197 97.3924156,2.58591494 98.0642939,1.91403658 C98.7361723,1.24215822 99.5408517,0.906224084 100.478356,0.906224084 C101.431486,0.906224084 102.243978,1.24215822 102.915856,1.91403658 C103.587735,2.57028986 103.923669,3.37496932 103.923669,4.32809908 C103.923669,5.28122885 103.587735,6.09372072 102.915856,6.76559908 C102.259603,7.43747744 101.454924,7.77341158 100.501794,7.77341158 C99.5486642,7.77341158 98.7361723,7.43747744 98.0642939,6.76559908 C97.3924156,6.09372072 97.0564814,5.27341643 97.0564814,4.30466158 Z M108.728356,25.0468491 C108.728356,21.7499576 109.908032,18.9452981 112.267419,16.6327866 C114.626806,14.320275 117.501777,13.1640366 120.892419,13.1640366 C124.298686,13.1640366 127.189282,14.3280874 129.564294,16.6562241 C131.908056,18.9843607 133.079919,21.8437071 133.079919,25.2343491 C133.079919,28.6562412 131.900243,31.5234 129.540856,33.8359116 C127.165845,36.1327981 124.251811,37.2812241 120.798669,37.2812241 C117.376777,37.2812241 114.509618,36.1093608 112.197106,33.7655991 C109.884595,31.4530875 108.728356,28.5468666 108.728356,25.0468491 Z M114.118981,25.1405991 C114.118981,27.4218605 114.72835,29.2265299 115.947106,30.5546616 C117.197113,31.8984183 118.845534,32.5702866 120.892419,32.5702866 C122.954929,32.5702866 124.60335,31.9062307 125.837731,30.5780991 C127.072113,29.2499674 127.689294,27.4765477 127.689294,25.2577866 C127.689294,23.0390255 127.072113,21.2656057 125.837731,19.9374741 C124.587725,18.5937174 122.939304,17.9218491 120.892419,17.9218491 C118.876784,17.9218491 117.243988,18.5937174 115.993981,19.9374741 C114.743975,21.2812308 114.118981,23.0155885 114.118981,25.1405991 Z M138.658044,13.7968491 L143.954919,13.7968491 L143.954919,15.9062241 C145.798678,14.0780899 147.876782,13.1640366 150.189294,13.1640366 C152.845557,13.1640366 154.915849,13.9999657 156.400231,15.6718491 C157.681488,17.0937312 158.322106,19.4140205 158.322106,22.6327866 L158.322106,36.6249741 L153.025231,36.6249741 L153.025231,23.8749741 C153.025231,21.6249628 152.712735,20.0702909 152.087731,19.2109116 C151.478353,18.3359072 150.368989,17.8984116 148.759606,17.8984116 C147.009598,17.8984116 145.767423,18.4765308 145.033044,19.6327866 C144.31429,20.7734173 143.954919,22.7655849 143.954919,25.6093491 L143.954919,36.6249741 L138.658044,36.6249741 L138.658044,13.7968491 Z" id="orrision"></path>
                <g id="digital" transform="translate(48.000000, 25.000000)">
                    <g>
                        <path d="M18.3531256,0.300789411 L23.6500006,0.300789411 L23.6500006,39.8867269 L18.3531256,39.8867269 L18.3531256,37.4961019 C16.2749902,39.5273621 13.9234512,40.5429769 11.2984381,40.5429769 C8.17342245,40.5429769 5.57969838,39.4023633 3.51718807,37.1211019 C1.47030284,34.7929653 0.446875572,31.8867443 0.446875572,28.4023519 C0.446875572,24.9960849 1.47030284,22.1523633 3.51718807,19.8711019 C5.54844823,17.5742154 8.10311018,16.4257894 11.1812506,16.4257894 C13.8531389,16.4257894 16.24374,17.5195285 18.3531256,19.7070394 L18.3531256,0.300789411 Z M5.83750057,28.4023519 C5.83750057,30.5898628 6.42343221,32.371095 7.59531307,33.7461019 C8.79844409,35.1367339 10.3140539,35.8320394 12.1421881,35.8320394 C14.0953228,35.8320394 15.6734321,35.1601711 16.8765631,33.8164144 C18.0796941,32.4257825 18.6812506,30.6601751 18.6812506,28.5195394 C18.6812506,26.3789037 18.0796941,24.6132964 16.8765631,23.2226644 C15.6734321,21.8632826 14.1109477,21.1836019 12.1890631,21.1836019 C10.376554,21.1836019 8.86094417,21.871095 7.64218807,23.2461019 C6.43905706,24.6367339 5.83750057,26.3554667 5.83750057,28.4023519 Z M32.179688,17.0586019 L32.179688,39.8867269 L26.9062505,39.8867269 L26.9062505,17.0586019 L32.179688,17.0586019 Z M57.5375004,39.3476644 C57.5375004,40.4257948 57.5023445,41.3750041 57.4320316,42.1953207 C57.3617188,43.0156373 57.2640635,43.7382863 57.1390629,44.3632894 C56.764061,46.082048 56.0296934,47.5585957 54.9359379,48.7929769 C52.8734276,51.1679888 50.0375184,52.3554769 46.4281254,52.3554769 C43.3812351,52.3554769 40.8734477,51.5351726 38.9046879,49.8945394 C36.8734277,48.207031 35.7015644,45.8711168 35.3890629,42.8867269 L40.6859379,42.8867269 C40.8890639,44.0117325 41.224998,44.8789114 41.6937504,45.4882894 C42.7875059,46.9101715 44.3812399,47.6211019 46.4750004,47.6211019 C50.3343947,47.6211019 52.2640629,45.2539381 52.2640629,40.5195394 L52.2640629,37.3320394 C50.1703024,39.4726751 47.7562641,40.5429769 45.0218754,40.5429769 C41.9124848,40.5429769 39.3656353,39.4179882 37.3812504,37.1679769 C35.3812404,34.8867155 34.3812504,32.0351815 34.3812504,28.6132894 C34.3812504,25.2851478 35.3109286,22.4570511 37.1703129,20.1289144 C39.1703229,17.6601521 41.8109215,16.4257894 45.0921879,16.4257894 C47.9672023,16.4257894 50.3578034,17.4960912 52.2640629,19.6367269 L52.2640629,17.0586019 L57.5375004,17.0586019 L57.5375004,39.3476644 Z M52.4750004,28.5195394 C52.4750004,26.3007783 51.8812563,24.5273586 50.6937504,23.1992269 C49.4906194,21.8398451 47.9515723,21.1601644 46.0765629,21.1601644 C44.0765529,21.1601644 42.4984437,21.9023445 41.3421879,23.3867269 C40.2953076,24.7148586 39.7718754,26.4335914 39.7718754,28.5429769 C39.7718754,30.6211123 40.2953076,32.3242203 41.3421879,33.6523519 C42.4828186,35.1054842 44.0609278,35.8320394 46.0765629,35.8320394 C48.092198,35.8320394 49.685932,35.0976718 50.8578129,33.6289144 C51.9359433,32.3007828 52.4750004,30.5976748 52.4750004,28.5195394 Z M66.0671878,17.0586019 L66.0671878,39.8867269 L60.7937503,39.8867269 L60.7937503,17.0586019 L66.0671878,17.0586019 Z M74.7843752,21.9804769 L74.7843752,39.8867269 L69.5109377,39.8867269 L69.5109377,21.9804769 L67.2609377,21.9804769 L67.2609377,17.0586019 L69.5109377,17.0586019 L69.5109377,8.69141441 L74.7843752,8.69141441 L74.7843752,17.0586019 L78.8859377,17.0586019 L78.8859377,21.9804769 L74.7843752,21.9804769 Z M96.3218751,17.0586019 L101.61875,17.0586019 L101.61875,39.8867269 L96.3218751,39.8867269 L96.3218751,37.4961019 C94.1499892,39.5273621 91.8140751,40.5429769 89.3140626,40.5429769 C86.1577968,40.5429769 83.5484479,39.4023633 81.4859376,37.1211019 C79.4390524,34.7929653 78.4156251,31.8867443 78.4156251,28.4023519 C78.4156251,24.9804598 79.4390524,22.1289258 81.4859376,19.8476644 C83.5328228,17.566403 86.0952972,16.4257894 89.1734376,16.4257894 C91.8297009,16.4257894 94.2124895,17.5195285 96.3218751,19.7070394 L96.3218751,17.0586019 Z M83.8062501,28.4023519 C83.8062501,30.5898628 84.3921817,32.371095 85.5640626,33.7461019 C86.7671936,35.1367339 88.2828035,35.8320394 90.1109376,35.8320394 C92.0640724,35.8320394 93.6421816,35.1601711 94.8453126,33.8164144 C96.0484436,32.4257825 96.6500001,30.6601751 96.6500001,28.5195394 C96.6500001,26.3789037 96.0484436,24.6132964 94.8453126,23.2226644 C93.6421816,21.8632826 92.0796972,21.1836019 90.1578126,21.1836019 C88.3453035,21.1836019 86.8296937,21.871095 85.6109376,23.2461019 C84.4078066,24.6367339 83.8062501,26.3554667 83.8062501,28.4023519 Z M110.148438,0.300789411 L110.148438,39.8867269 L104.875,39.8867269 L104.875,0.300789411 L110.148438,0.300789411 Z"></path>
                    </g>
                </g>
            </g>
        </g>
    </g>
</svg>