<?xml version="1.0" encoding="UTF-8"?>
<svg width="404px" height="241px" viewBox="0 0 404 241" version="1.1" xmlns="http://www.w3.org/2000/svg" xmlns:xlink="http://www.w3.org/1999/xlink">
    <!-- Generator: Sketch 48.2 (47327) - http://www.bohemiancoding.com/sketch -->
    <title>corrosion-adress</title>
    <desc>Created with Sketch.</desc>
    <defs></defs>
    <g id="Page-1" stroke="none" stroke-width="1" fill="none" fill-rule="evenodd">
        <g id="corrosion-adress" fill="#000000">
            <path d="M39.3214696,16.158633 L39.3214696,22.627383 C36.1652038,19.9867448 32.8996114,18.6664455 29.5245946,18.6664455 C25.805826,18.6664455 22.6730448,20.0023696 20.1261571,22.674258 C17.5636443,25.3305213 16.2824071,28.5804888 16.2824071,32.424258 C16.2824071,36.221152 17.5636443,39.4242449 20.1261571,42.033633 C22.6886699,44.643021 25.8292635,45.9476955 29.5480321,45.9476955 C31.4699167,45.9476955 33.1027129,45.6351986 34.4464696,45.0101955 C35.1964733,44.6976939 35.9738093,44.2758231 36.7785008,43.7445705 C37.5831923,43.2133178 38.4308401,42.5726992 39.3214696,41.8226955 L39.3214696,48.408633 C36.1964539,50.1742668 32.9152368,51.0570705 29.4777196,51.0570705 C24.3058187,51.0570705 19.8918004,49.252401 16.2355321,45.643008 C12.5948889,42.0023648 10.7745946,37.6117837 10.7745946,32.471133 C10.7745946,27.8617349 12.2980168,23.752401 15.3449071,20.143008 C19.0949258,15.7211109 23.9464398,13.5101955 29.8995946,13.5101955 C33.1496108,13.5101955 36.2902044,14.3929991 39.3214696,16.158633 Z M40.726157,38.8226955 C40.726157,35.525804 41.9058327,32.7211445 44.2652195,30.408633 C46.6246063,28.0961214 49.4995775,26.939883 52.8902195,26.939883 C56.2964865,26.939883 59.1870826,28.1039338 61.5620945,30.4320705 C63.9058562,32.7602071 65.0777195,35.6195535 65.0777195,39.0101955 C65.0777195,42.4320876 63.8980438,45.2992464 61.538657,47.611758 C59.1636451,49.9086445 56.2496117,51.0570705 52.7964695,51.0570705 C49.3745774,51.0570705 46.5074185,49.8852072 44.194907,47.5414455 C41.8823954,45.2289339 40.726157,42.322713 40.726157,38.8226955 Z M46.116782,38.9164455 C46.116782,41.1977069 46.7261509,43.0023763 47.944907,44.330508 C49.1949132,45.6742647 50.8433342,46.346133 52.8902195,46.346133 C54.9527298,46.346133 56.6011508,45.6820771 57.835532,44.3539455 C59.0699131,43.0258138 59.6870945,41.2523941 59.6870945,39.033633 C59.6870945,36.8148719 59.0699131,35.0414521 57.835532,33.7133205 C56.5855257,32.3695638 54.9371047,31.6976955 52.8902195,31.6976955 C50.8745844,31.6976955 49.2417882,32.3695638 47.991782,33.7133205 C46.7417757,35.0570772 46.116782,36.7914348 46.116782,38.9164455 Z M67.2558444,27.5726955 L72.5292819,27.5726955 L72.5292819,29.611758 C73.4980367,28.5961279 74.3574031,27.9008223 75.1074069,27.5258205 C75.8730357,27.1351935 76.7792766,26.939883 77.8261569,26.939883 C79.2167888,26.939883 80.6698993,27.3930034 82.1855319,28.299258 L79.7714694,33.127383 C78.7714644,32.4086294 77.7949116,32.049258 76.8417819,32.049258 C73.9667675,32.049258 72.5292819,34.2211113 72.5292819,38.564883 L72.5292819,50.4008205 L67.2558444,50.4008205 L67.2558444,27.5726955 Z M82.5355318,27.5726955 L87.8089693,27.5726955 L87.8089693,29.611758 C88.7777241,28.5961279 89.6370905,27.9008223 90.3870943,27.5258205 C91.1527231,27.1351935 92.058964,26.939883 93.1058443,26.939883 C94.4964762,26.939883 95.9495867,27.3930034 97.4652193,28.299258 L95.0511568,33.127383 C94.0511518,32.4086294 93.074599,32.049258 92.1214693,32.049258 C89.2464549,32.049258 87.8089693,34.2211113 87.8089693,38.564883 L87.8089693,50.4008205 L82.5355318,50.4008205 L82.5355318,27.5726955 Z M95.5886567,38.8226955 C95.5886567,35.525804 96.7683324,32.7211445 99.1277192,30.408633 C101.487106,28.0961214 104.362077,26.939883 107.752719,26.939883 C111.158986,26.939883 114.049582,28.1039338 116.424594,30.4320705 C118.768356,32.7602071 119.940219,35.6195535 119.940219,39.0101955 C119.940219,42.4320876 118.760543,45.2992464 116.401157,47.611758 C114.026145,49.9086445 111.112111,51.0570705 107.658969,51.0570705 C104.237077,51.0570705 101.369918,49.8852072 99.0574067,47.5414455 C96.7448951,45.2289339 95.5886567,42.322713 95.5886567,38.8226955 Z M100.979282,38.9164455 C100.979282,41.1977069 101.588651,43.0023763 102.807407,44.330508 C104.057413,45.6742647 105.705834,46.346133 107.752719,46.346133 C109.81523,46.346133 111.463651,45.6820771 112.698032,44.3539455 C113.932413,43.0258138 114.549594,41.2523941 114.549594,39.033633 C114.549594,36.8148719 113.932413,35.0414521 112.698032,33.7133205 C111.448025,32.3695638 109.799604,31.6976955 107.752719,31.6976955 C105.737084,31.6976955 104.104288,32.3695638 102.854282,33.7133205 C101.604275,35.0570772 100.979282,36.7914348 100.979282,38.9164455 Z M135.383969,31.4633205 L131.024594,33.783633 C130.337091,32.3773759 129.485537,31.674258 128.469907,31.674258 C127.985529,31.674258 127.571471,31.8344126 127.227719,32.1547267 C126.883967,32.4750408 126.712094,32.885193 126.712094,33.3851955 C126.712094,34.2601998 127.727709,35.1273787 129.758969,35.986758 C132.555858,37.189889 134.438652,38.2992529 135.407407,39.314883 C136.376161,40.330513 136.860532,41.6976869 136.860532,43.4164455 C136.860532,45.6195815 136.04804,47.463313 134.423032,48.9476955 C132.844899,50.3539525 130.938668,51.0570705 128.704282,51.0570705 C124.876137,51.0570705 122.165227,49.1899016 120.571469,45.455508 L125.071469,43.3695705 C125.696472,44.4633259 126.17303,45.1586315 126.501157,45.455508 C127.141785,46.0492609 127.907402,46.346133 128.798032,46.346133 C130.57929,46.346133 131.469907,45.5336411 131.469907,43.908633 C131.469907,42.9711283 130.782413,42.096137 129.407407,41.283633 C128.876154,41.0180066 128.344909,40.7601967 127.813657,40.5101955 C127.282404,40.2601942 126.743347,40.0023843 126.196469,39.736758 C124.665211,38.9867542 123.587097,38.2367617 122.962094,37.486758 C122.165215,36.5336282 121.766782,35.307078 121.766782,33.8070705 C121.766782,31.8226855 122.446462,30.182077 123.805844,28.8851955 C125.196476,27.588314 126.883959,26.939883 128.868344,26.939883 C131.790234,26.939883 133.962087,28.4476804 135.383969,31.4633205 Z M143.468344,27.5726955 L143.468344,50.4008205 L138.194906,50.4008205 L138.194906,27.5726955 L143.468344,27.5726955 Z M137.398031,18.080508 C137.398031,17.1586284 137.733966,16.3617613 138.405844,15.689883 C139.077722,15.0180046 139.882402,14.6820705 140.819906,14.6820705 C141.773036,14.6820705 142.585528,15.0180046 143.257406,15.689883 C143.929285,16.3461363 144.265219,17.1508157 144.265219,18.1039455 C144.265219,19.0570752 143.929285,19.8695671 143.257406,20.5414455 C142.601153,21.2133238 141.796474,21.549258 140.843344,21.549258 C139.890214,21.549258 139.077722,21.2133238 138.405844,20.5414455 C137.733966,19.8695671 137.398031,19.0492628 137.398031,18.080508 Z M145.669906,38.8226955 C145.669906,35.525804 146.849582,32.7211445 149.208969,30.408633 C151.568356,28.0961214 154.443327,26.939883 157.833969,26.939883 C161.240236,26.939883 164.130832,28.1039338 166.505844,30.4320705 C168.849606,32.7602071 170.021469,35.6195535 170.021469,39.0101955 C170.021469,42.4320876 168.841793,45.2992464 166.482406,47.611758 C164.107395,49.9086445 161.193361,51.0570705 157.740219,51.0570705 C154.318327,51.0570705 151.451168,49.8852072 149.138656,47.5414455 C146.826145,45.2289339 145.669906,42.322713 145.669906,38.8226955 Z M151.060531,38.9164455 C151.060531,41.1977069 151.6699,43.0023763 152.888656,44.330508 C154.138663,45.6742647 155.787084,46.346133 157.833969,46.346133 C159.896479,46.346133 161.5449,45.6820771 162.779281,44.3539455 C164.013663,43.0258138 164.630844,41.2523941 164.630844,39.033633 C164.630844,36.8148719 164.013663,35.0414521 162.779281,33.7133205 C161.529275,32.3695638 159.880854,31.6976955 157.833969,31.6976955 C155.818334,31.6976955 154.185538,32.3695638 152.935531,33.7133205 C151.685525,35.0570772 151.060531,36.7914348 151.060531,38.9164455 Z M172.199594,27.5726955 L177.496469,27.5726955 L177.496469,29.6820705 C179.340228,27.8539363 181.418332,26.939883 183.730844,26.939883 C186.387107,26.939883 188.457399,27.7758121 189.941781,29.4476955 C191.223038,30.8695776 191.863656,33.1898669 191.863656,36.408633 L191.863656,50.4008205 L186.566781,50.4008205 L186.566781,37.6508205 C186.566781,35.4008092 186.254284,33.8461373 185.629281,32.986758 C185.019903,32.1117536 183.910539,31.674258 182.301156,31.674258 C180.551148,31.674258 179.308972,32.2523772 178.574594,33.408633 C177.85584,34.5492637 177.496469,36.5414313 177.496469,39.3851955 L177.496469,50.4008205 L172.199594,50.4008205 L172.199594,27.5726955 Z M207.540219,50.4008205 L207.540219,14.2133205 L215.133969,14.2133205 C218.774612,14.2133205 221.649583,14.5726919 223.758969,15.2914455 C226.024605,15.994574 228.079272,17.1898745 229.923031,18.877383 C233.657425,22.28365 235.524594,26.7601677 235.524594,32.3070705 C235.524594,37.8695983 233.579301,42.3695533 229.688656,45.8070705 C227.735521,47.5258291 225.688667,48.7211296 223.548031,49.393008 C221.548021,50.0648863 218.712112,50.4008205 215.040219,50.4008205 L207.540219,50.4008205 Z M213.001156,45.268008 L215.462094,45.268008 C217.915231,45.268008 219.954273,45.010198 221.579281,44.4945705 C223.204289,43.9476927 224.673025,43.0805139 225.985531,41.893008 C228.673045,39.4398707 230.016781,36.2445902 230.016781,32.3070705 C230.016781,28.3383006 228.688669,25.1195828 226.032406,22.6508205 C223.641769,20.4476845 220.118367,19.346133 215.462094,19.346133 L213.001156,19.346133 L213.001156,45.268008 Z M243.257406,27.5726955 L243.257406,50.4008205 L237.983969,50.4008205 L237.983969,27.5726955 L243.257406,27.5726955 Z M237.187094,18.080508 C237.187094,17.1586284 237.523028,16.3617613 238.194906,15.689883 C238.866784,15.0180046 239.671464,14.6820705 240.608969,14.6820705 C241.562098,14.6820705 242.37459,15.0180046 243.046469,15.689883 C243.718347,16.3461363 244.054281,17.1508157 244.054281,18.1039455 C244.054281,19.0570752 243.718347,19.8695671 243.046469,20.5414455 C242.390215,21.2133238 241.585536,21.549258 240.632406,21.549258 C239.679276,21.549258 238.866784,21.2133238 238.194906,20.5414455 C237.523028,19.8695671 237.187094,19.0492628 237.187094,18.080508 Z M268.615218,49.861758 C268.615218,50.9398884 268.580063,51.8890976 268.50975,52.7094142 C268.439437,53.5297308 268.341782,54.2523798 268.216781,54.877383 C267.841779,56.5961416 267.107411,58.0726893 266.013656,59.3070705 C263.951146,61.6820823 261.115236,62.8695705 257.505843,62.8695705 C254.458953,62.8695705 251.951166,62.0492662 249.982406,60.408633 C247.951146,58.7211245 246.779282,56.3852104 246.466781,53.4008205 L251.763656,53.4008205 C251.966782,54.5258261 252.302716,55.3930049 252.771468,56.002383 C253.865224,57.4242651 255.458958,58.1351955 257.552718,58.1351955 C261.412113,58.1351955 263.341781,55.7680316 263.341781,51.033633 L263.341781,47.846133 C261.24802,49.9867687 258.833982,51.0570705 256.099593,51.0570705 C252.990203,51.0570705 250.443353,49.9320817 248.458968,47.6820705 C246.458958,45.4008091 245.458968,42.5492751 245.458968,39.127383 C245.458968,35.7992413 246.388647,32.9711446 248.248031,30.643008 C250.248041,28.1742456 252.88864,26.939883 256.169906,26.939883 C259.04492,26.939883 261.435521,28.0101848 263.341781,30.1508205 L263.341781,27.5726955 L268.615218,27.5726955 L268.615218,49.861758 Z M263.552718,39.033633 C263.552718,36.8148719 262.958974,35.0414521 261.771468,33.7133205 C260.568337,32.3539387 259.02929,31.674258 257.154281,31.674258 C255.154271,31.674258 253.576162,32.416438 252.419906,33.9008205 C251.373026,35.2289521 250.849593,36.9476849 250.849593,39.0570705 C250.849593,41.1352059 251.373026,42.8383138 252.419906,44.1664455 C253.560537,45.6195777 255.138646,46.346133 257.154281,46.346133 C259.169916,46.346133 260.76365,45.6117653 261.935531,44.143008 C263.013661,42.8148763 263.552718,41.1117684 263.552718,39.033633 Z M277.144906,27.5726955 L277.144906,50.4008205 L271.871468,50.4008205 L271.871468,27.5726955 L277.144906,27.5726955 Z M271.074593,18.080508 C271.074593,17.1586284 271.410527,16.3617613 272.082406,15.689883 C272.754284,15.0180046 273.558964,14.6820705 274.496468,14.6820705 C275.449598,14.6820705 276.26209,15.0180046 276.933968,15.689883 C277.605847,16.3461363 277.941781,17.1508157 277.941781,18.1039455 C277.941781,19.0570752 277.605847,19.8695671 276.933968,20.5414455 C276.277715,21.2133238 275.473036,21.549258 274.519906,21.549258 C273.566776,21.549258 272.754284,21.2133238 272.082406,20.5414455 C271.410527,19.8695671 271.074593,19.0492628 271.074593,18.080508 Z M285.862093,32.4945705 L285.862093,50.4008205 L280.588656,50.4008205 L280.588656,32.4945705 L278.338656,32.4945705 L278.338656,27.5726955 L280.588656,27.5726955 L280.588656,19.205508 L285.862093,19.205508 L285.862093,27.5726955 L289.963656,27.5726955 L289.963656,32.4945705 L285.862093,32.4945705 Z M307.399593,27.5726955 L312.696468,27.5726955 L312.696468,50.4008205 L307.399593,50.4008205 L307.399593,48.0101955 C305.227707,50.0414556 302.891793,51.0570705 300.391781,51.0570705 C297.235515,51.0570705 294.626166,49.9164569 292.563656,47.6351955 C290.51677,45.3070588 289.493343,42.4008379 289.493343,38.9164455 C289.493343,35.4945534 290.51677,32.6430194 292.563656,30.361758 C294.610541,28.0804966 297.173015,26.939883 300.251156,26.939883 C302.907419,26.939883 305.290208,28.033622 307.399593,30.221133 L307.399593,27.5726955 Z M294.883968,38.9164455 C294.883968,41.1039564 295.4699,42.8851886 296.641781,44.2601955 C297.844912,45.6508274 299.360521,46.346133 301.188656,46.346133 C303.14179,46.346133 304.7199,45.6742647 305.923031,44.330508 C307.126162,42.939876 307.727718,41.1742687 307.727718,39.033633 C307.727718,36.8929973 307.126162,35.1273899 305.923031,33.736758 C304.7199,32.3773762 303.157415,31.6976955 301.235531,31.6976955 C299.423022,31.6976955 297.907412,32.3851886 296.688656,33.7601955 C295.485525,35.1508274 294.883968,36.8695602 294.883968,38.9164455 Z M321.226156,10.814883 L321.226156,50.4008205 L315.952718,50.4008205 L315.952718,10.814883 L321.226156,10.814883 Z M342.387093,14.2133205 L342.387093,50.4008205 L336.926155,50.4008205 L336.926155,14.2133205 L342.387093,14.2133205 Z M349.51053,14.2133205 L359.518343,39.2914455 L369.66678,14.2133205 L375.643343,14.2133205 L359.401155,53.1195705 L343.533968,14.2133205 L349.51053,14.2133205 Z M396.290218,19.6039455 L391.86053,22.2289455 C391.032401,20.7914383 390.243346,19.8539477 389.493343,19.4164455 C388.712089,18.916443 387.704286,18.6664455 386.469905,18.6664455 C384.954273,18.6664455 383.696473,19.0961287 382.696468,19.955508 C381.696463,20.7992622 381.196468,21.8617516 381.196468,23.143008 C381.196468,24.9086418 382.508955,26.3305026 385.133968,27.408633 L388.743343,28.8851955 C391.680857,30.0727014 393.829273,31.5219057 395.188655,33.2328517 C396.548037,34.9437978 397.227718,37.041433 397.227718,39.5258205 C397.227718,42.8539621 396.118354,45.6039346 393.899593,47.7758205 C391.665206,49.9633314 388.891797,51.0570705 385.57928,51.0570705 C382.438639,51.0570705 379.844915,50.1273923 377.79803,48.268008 C375.782395,46.4086237 374.524595,43.7914623 374.024593,40.4164455 L379.555843,39.1976955 C379.805844,41.3227061 380.24334,42.7914414 380.868343,43.6039455 C381.993348,45.1664533 383.633957,45.9476955 385.790218,45.9476955 C387.493351,45.9476955 388.9074,45.3773887 390.032405,44.236758 C391.157411,43.0961273 391.719905,41.6508292 391.719905,39.9008205 C391.719905,39.197692 391.62225,38.5531672 391.426936,37.9672267 C391.231623,37.3812863 390.926938,36.8422292 390.512874,36.3500392 C390.098809,35.8578493 389.563658,35.3969164 388.907405,34.9672267 C388.251152,34.5375371 387.46991,34.1273849 386.563655,33.736758 L383.071468,32.283633 C378.118318,30.1898725 375.64178,27.1274031 375.64178,23.096133 C375.64178,20.3773694 376.680832,18.1039546 378.758968,16.2758205 C380.837103,14.4320613 383.423015,13.5101955 386.51678,13.5101955 C390.688676,13.5101955 393.946456,15.5414252 396.290218,19.6039455 Z M152.416781,103.611758 L136.924594,103.611758 L132.893344,112.40082 L127.010531,112.40082 L144.916781,73.939883 L162.190219,112.40082 L156.213656,112.40082 L152.416781,103.611758 Z M150.190219,98.4789455 L144.823031,86.174258 L139.198031,98.4789455 L150.190219,98.4789455 Z M162.305844,89.5726955 L167.579281,89.5726955 L167.579281,91.6820705 C168.594911,90.6195652 169.46209,89.9008223 170.180844,89.5258205 C170.946472,89.1351935 171.9074,88.939883 173.063656,88.939883 C175.641794,88.939883 177.680836,90.0648717 179.180844,92.314883 C180.837102,90.0648717 183.079267,88.939883 185.907406,88.939883 C191.048057,88.939883 193.618344,92.0570393 193.618344,98.2914455 L193.618344,112.40082 L188.321469,112.40082 L188.321469,99.721133 C188.321469,97.533622 188.055846,95.9867625 187.524594,95.080508 C186.977716,94.1586284 186.079287,93.6976955 184.829281,93.6976955 C183.376149,93.6976955 182.317566,94.244565 181.6535,95.3383205 C180.989434,96.4320759 180.657406,98.1898709 180.657406,100.611758 L180.657406,112.40082 L175.360531,112.40082 L175.360531,99.7914455 C175.360531,95.7289252 174.188668,93.6976955 171.844906,93.6976955 C170.360524,93.6976955 169.278503,94.2523774 168.598812,95.361758 C167.919121,96.4711385 167.579281,98.221121 167.579281,100.611758 L167.579281,112.40082 L162.305844,112.40082 L162.305844,89.5726955 Z M213.702719,89.5726955 L218.999594,89.5726955 L218.999594,112.40082 L213.702719,112.40082 L213.702719,110.010195 C211.530833,112.041456 209.194919,113.05707 206.694906,113.05707 C203.53864,113.05707 200.929291,111.916457 198.866781,109.635195 C196.819896,107.307059 195.796469,104.400838 195.796469,100.916445 C195.796469,97.4945534 196.819896,94.6430194 198.866781,92.361758 C200.913666,90.0804966 203.476141,88.939883 206.554281,88.939883 C209.210544,88.939883 211.593333,90.033622 213.702719,92.221133 L213.702719,89.5726955 Z M201.187094,100.916445 C201.187094,103.103956 201.773025,104.885189 202.944906,106.260195 C204.148037,107.650827 205.663647,108.346133 207.491781,108.346133 C209.444916,108.346133 211.023025,107.674265 212.226156,106.330508 C213.429287,104.939876 214.030844,103.174269 214.030844,101.033633 C214.030844,98.8929973 213.429287,97.1273899 212.226156,95.736758 C211.023025,94.3773762 209.460541,93.6976955 207.538656,93.6976955 C205.726147,93.6976955 204.210537,94.3851886 202.991781,95.7601955 C201.78865,97.1508274 201.187094,98.8695602 201.187094,100.916445 Z M227.529281,72.814883 L227.529281,112.40082 L222.255843,112.40082 L222.255843,72.814883 L227.529281,72.814883 Z M236.082406,89.5726955 L236.082406,112.40082 L230.808968,112.40082 L230.808968,89.5726955 L236.082406,89.5726955 Z M230.012093,80.080508 C230.012093,79.1586284 230.348027,78.3617613 231.019906,77.689883 C231.691784,77.0180046 232.496464,76.6820705 233.433968,76.6820705 C234.387098,76.6820705 235.19959,77.0180046 235.871468,77.689883 C236.543347,78.3461363 236.879281,79.1508157 236.879281,80.1039455 C236.879281,81.0570752 236.543347,81.8695671 235.871468,82.5414455 C235.215215,83.2133238 234.410536,83.549258 233.457406,83.549258 C232.504276,83.549258 231.691784,83.2133238 231.019906,82.5414455 C230.348027,81.8695671 230.012093,81.0492628 230.012093,80.080508 Z M260.151156,102.228945 L243.791781,102.228945 C243.932406,104.103955 244.541775,105.596127 245.619906,106.705508 C246.698036,107.799263 248.080835,108.346133 249.768343,108.346133 C251.08085,108.346133 252.166776,108.033636 253.026156,107.408633 C253.86991,106.78363 254.830838,105.627391 255.908968,103.939883 L260.362093,106.424258 C259.67459,107.596139 258.948035,108.600035 258.182406,109.435977 C257.416777,110.271918 256.596473,110.959412 255.721468,111.498477 C254.846464,112.037542 253.901161,112.432069 252.885531,112.68207 C251.869901,112.932072 250.768349,113.05707 249.580843,113.05707 C246.174576,113.05707 243.440229,111.963331 241.377718,109.77582 C239.315208,107.572684 238.283968,104.650839 238.283968,101.010195 C238.283968,97.4008024 239.283958,94.4789566 241.283968,92.2445705 C243.299603,90.0414345 245.971452,88.939883 249.299593,88.939883 C252.658985,88.939883 255.315208,90.0101848 257.268343,92.1508205 C259.205853,94.2758311 260.174593,97.2211141 260.174593,100.986758 L260.151156,102.228945 Z M254.737093,97.9164455 C254.002715,95.1039314 252.229295,93.6976955 249.416781,93.6976955 C248.776153,93.6976955 248.174596,93.7953507 247.612093,93.9906642 C247.04959,94.1859777 246.537877,94.4672249 246.076937,94.8344142 C245.615997,95.2016036 245.22147,95.6430054 244.893343,96.158633 C244.565217,96.6742605 244.315219,97.2601922 244.143343,97.9164455 L254.737093,97.9164455 Z M284.594906,111.861758 C284.594906,112.939888 284.55975,113.889098 284.489437,114.709414 C284.419124,115.529731 284.321469,116.25238 284.196468,116.877383 C283.821466,118.596142 283.087099,120.072689 281.993343,121.30707 C279.930833,123.682082 277.094924,124.86957 273.485531,124.86957 C270.43864,124.86957 267.930853,124.049266 265.962093,122.408633 C263.930833,120.721125 262.75897,118.38521 262.446468,115.40082 L267.743343,115.40082 C267.946469,116.525826 268.282403,117.393005 268.751156,118.002383 C269.844911,119.424265 271.438645,120.135195 273.532406,120.135195 C277.3918,120.135195 279.321468,117.768032 279.321468,113.033633 L279.321468,109.846133 C277.227708,111.986769 274.813669,113.05707 272.079281,113.05707 C268.96989,113.05707 266.423041,111.932082 264.438656,109.68207 C262.438646,107.400809 261.438656,104.549275 261.438656,101.127383 C261.438656,97.7992413 262.368334,94.9711446 264.227718,92.643008 C266.227728,90.1742456 268.868327,88.939883 272.149593,88.939883 C275.024608,88.939883 277.415209,90.0101848 279.321468,92.1508205 L279.321468,89.5726955 L284.594906,89.5726955 L284.594906,111.861758 Z M279.532406,101.033633 C279.532406,98.8148719 278.938662,97.0414521 277.751156,95.7133205 C276.548025,94.3539387 275.008978,93.674258 273.133968,93.674258 C271.133958,93.674258 269.555849,94.416438 268.399593,95.9008205 C267.352713,97.2289521 266.829281,98.9476849 266.829281,101.05707 C266.829281,103.135206 267.352713,104.838314 268.399593,106.166445 C269.540224,107.619578 271.118333,108.346133 273.133968,108.346133 C275.149603,108.346133 276.743337,107.611765 277.915218,106.143008 C278.993349,104.814876 279.532406,103.111768 279.532406,101.033633 Z M304.679281,89.5726955 L309.976156,89.5726955 L309.976156,112.40082 L304.679281,112.40082 L304.679281,110.010195 C302.507395,112.041456 300.171481,113.05707 297.671468,113.05707 C294.515202,113.05707 291.905853,111.916457 289.843343,109.635195 C287.796458,107.307059 286.773031,104.400838 286.773031,100.916445 C286.773031,97.4945534 287.796458,94.6430194 289.843343,92.361758 C291.890228,90.0804966 294.452703,88.939883 297.530843,88.939883 C300.187106,88.939883 302.569895,90.033622 304.679281,92.221133 L304.679281,89.5726955 Z M292.163656,100.916445 C292.163656,103.103956 292.749587,104.885189 293.921468,106.260195 C295.124599,107.650827 296.640209,108.346133 298.468343,108.346133 C300.421478,108.346133 301.999587,107.674265 303.202718,106.330508 C304.405849,104.939876 305.007406,103.174269 305.007406,101.033633 C305.007406,98.8929973 304.405849,97.1273899 303.202718,95.736758 C301.999587,94.3773762 300.437103,93.6976955 298.515218,93.6976955 C296.702709,93.6976955 295.187099,94.3851886 293.968343,95.7601955 C292.765212,97.1508274 292.163656,98.8695602 292.163656,100.916445 Z M330.06053,72.814883 L335.357405,72.814883 L335.357405,112.40082 L330.06053,112.40082 L330.06053,110.010195 C327.982395,112.041456 325.630856,113.05707 323.005843,113.05707 C319.880827,113.05707 317.287103,111.916457 315.224593,109.635195 C313.177708,107.307059 312.15428,104.400838 312.15428,100.916445 C312.15428,97.5101784 313.177708,94.6664569 315.224593,92.3851955 C317.255853,90.088309 319.810515,88.939883 322.888655,88.939883 C325.560544,88.939883 327.951145,90.033622 330.06053,92.221133 L330.06053,72.814883 Z M317.544905,100.916445 C317.544905,103.103956 318.130837,104.885189 319.302718,106.260195 C320.505849,107.650827 322.021459,108.346133 323.849593,108.346133 C325.802728,108.346133 327.380837,107.674265 328.583968,106.330508 C329.787099,104.939876 330.388655,103.174269 330.388655,101.033633 C330.388655,98.8929973 329.787099,97.1273899 328.583968,95.736758 C327.380837,94.3773762 325.818353,93.6976955 323.896468,93.6976955 C322.083959,93.6976955 320.568349,94.3851886 319.349593,95.7601955 C318.146462,97.1508274 317.544905,98.8695602 317.544905,100.916445 Z M359.402718,102.228945 L343.043343,102.228945 C343.183969,104.103955 343.793337,105.596127 344.871468,106.705508 C345.949598,107.799263 347.332397,108.346133 349.019905,108.346133 C350.332412,108.346133 351.418339,108.033636 352.277718,107.408633 C353.121472,106.78363 354.0824,105.627391 355.16053,103.939883 L359.613655,106.424258 C358.926152,107.596139 358.199597,108.600035 357.433968,109.435977 C356.668339,110.271918 355.848035,110.959412 354.97303,111.498477 C354.098026,112.037542 353.152723,112.432069 352.137093,112.68207 C351.121463,112.932072 350.019911,113.05707 348.832405,113.05707 C345.426138,113.05707 342.691791,111.963331 340.62928,109.77582 C338.56677,107.572684 337.53553,104.650839 337.53553,101.010195 C337.53553,97.4008024 338.53552,94.4789566 340.53553,92.2445705 C342.551165,90.0414345 345.223014,88.939883 348.551155,88.939883 C351.910547,88.939883 354.566771,90.0101848 356.519905,92.1508205 C358.457415,94.2758311 359.426155,97.2211141 359.426155,100.986758 L359.402718,102.228945 Z M353.988655,97.9164455 C353.254277,95.1039314 351.480857,93.6976955 348.668343,93.6976955 C348.027715,93.6976955 347.426158,93.7953507 346.863655,93.9906642 C346.301153,94.1859777 345.789439,94.4672249 345.328499,94.8344142 C344.867559,95.2016036 344.473032,95.6430054 344.144905,96.158633 C343.816779,96.6742605 343.566781,97.2601922 343.394905,97.9164455 L353.988655,97.9164455 Z M382.86053,81.3226955 L376.602718,81.3226955 L379.602718,76.2133205 L388.321468,76.2133205 L388.321468,112.40082 L382.86053,112.40082 L382.86053,81.3226955 Z M142.174594,155.580508 C139.51833,153.705499 138.190219,151.150837 138.190219,147.916445 C138.190219,144.978931 139.198021,142.52583 141.213656,140.55707 C143.244916,138.588311 145.768329,137.603945 148.783969,137.603945 C151.783984,137.603945 154.283959,138.588311 156.283969,140.55707 C158.283979,142.510205 159.283969,144.971118 159.283969,147.939883 C159.283969,151.049274 157.963669,153.588311 155.323031,155.55707 C156.776163,156.338324 157.916777,157.478938 158.744906,158.978945 C159.58866,160.478953 160.010531,162.166436 160.010531,164.041445 C160.010531,167.244586 158.963667,169.86956 156.869906,171.916445 C154.776146,173.963331 152.096485,174.986758 148.830844,174.986758 C145.487077,174.986758 142.729292,173.955518 140.557406,171.893008 C138.369895,169.830498 137.276156,167.236774 137.276156,164.111758 C137.276156,160.049238 138.908952,157.205516 142.174594,155.580508 Z M143.323031,147.893008 C143.323031,149.439891 143.846463,150.736753 144.893344,151.783633 C145.955849,152.846138 147.237086,153.377383 148.737094,153.377383 C150.221476,153.377383 151.494901,152.846138 152.557406,151.783633 C153.619912,150.721128 154.151156,149.447703 154.151156,147.96332 C154.151156,146.478938 153.619912,145.205513 152.557406,144.143008 C151.494901,143.080503 150.221476,142.549258 148.737094,142.549258 C147.252711,142.549258 145.979287,143.080503 144.916781,144.143008 C143.854276,145.205513 143.323031,146.455501 143.323031,147.893008 Z M142.643344,163.924258 C142.643344,165.596141 143.221463,167.033627 144.377719,168.236758 C145.5496,169.424264 146.97146,170.018008 148.643344,170.018008 C150.299602,170.018008 151.71365,169.432076 152.885531,168.260195 C154.057412,167.07269 154.643344,165.650829 154.643344,163.99457 C154.643344,162.322687 154.057412,160.900826 152.885531,159.728945 C151.71365,158.557065 150.299602,157.971133 148.643344,157.971133 C147.002711,157.971133 145.588662,158.557065 144.401156,159.728945 C143.229275,160.900826 142.643344,162.29925 142.643344,163.924258 Z M162.094906,156.072695 C162.094906,150.307042 163.438643,145.705525 166.126156,142.268008 C168.532418,139.158617 171.446452,137.603945 174.868344,137.603945 C178.290236,137.603945 181.204269,139.158617 183.610531,142.268008 C186.298045,145.705525 187.641781,150.385166 187.641781,156.30707 C187.641781,162.21335 186.298045,166.885178 183.610531,170.322695 C181.204269,173.432086 178.298048,174.986758 174.891781,174.986758 C171.485514,174.986758 168.563668,173.432086 166.126156,170.322695 C163.438643,166.885178 162.094906,162.135226 162.094906,156.072695 Z M167.462094,156.096133 C167.462094,160.111778 168.157399,163.447682 169.548031,166.103945 C170.938663,168.713334 172.712083,170.018008 174.868344,170.018008 C177.008979,170.018008 178.782399,168.713334 180.188656,166.103945 C181.594913,163.510183 182.298031,160.236778 182.298031,156.283633 C182.298031,152.330488 181.594913,149.049271 180.188656,146.439883 C178.782399,143.84612 177.008979,142.549258 174.868344,142.549258 C172.743333,142.549258 170.977726,143.84612 169.571469,146.439883 C168.165212,149.018021 167.462094,152.236739 167.462094,156.096133 Z M188.319906,156.072695 C188.319906,150.307042 189.663643,145.705525 192.351156,142.268008 C194.757418,139.158617 197.671451,137.603945 201.093344,137.603945 C204.515236,137.603945 207.429269,139.158617 209.835531,142.268008 C212.523044,145.705525 213.866781,150.385166 213.866781,156.30707 C213.866781,162.21335 212.523044,166.885178 209.835531,170.322695 C207.429269,173.432086 204.523048,174.986758 201.116781,174.986758 C197.710514,174.986758 194.788668,173.432086 192.351156,170.322695 C189.663643,166.885178 188.319906,162.135226 188.319906,156.072695 Z M193.687094,156.096133 C193.687094,160.111778 194.382399,163.447682 195.773031,166.103945 C197.163663,168.713334 198.937083,170.018008 201.093344,170.018008 C203.233979,170.018008 205.007399,168.713334 206.413656,166.103945 C207.819913,163.510183 208.523031,160.236778 208.523031,156.283633 C208.523031,152.330488 207.819913,149.049271 206.413656,146.439883 C205.007399,143.84612 203.233979,142.549258 201.093344,142.549258 C198.968333,142.549258 197.202726,143.84612 195.796469,146.439883 C194.390211,149.018021 193.687094,152.236739 193.687094,156.096133 Z M214.544906,156.072695 C214.544906,150.307042 215.888642,145.705525 218.576156,142.268008 C220.982418,139.158617 223.896451,137.603945 227.318343,137.603945 C230.740236,137.603945 233.654269,139.158617 236.060531,142.268008 C238.748044,145.705525 240.091781,150.385166 240.091781,156.30707 C240.091781,162.21335 238.748044,166.885178 236.060531,170.322695 C233.654269,173.432086 230.748048,174.986758 227.341781,174.986758 C223.935514,174.986758 221.013668,173.432086 218.576156,170.322695 C215.888642,166.885178 214.544906,162.135226 214.544906,156.072695 Z M219.912093,156.096133 C219.912093,160.111778 220.607399,163.447682 221.998031,166.103945 C223.388663,168.713334 225.162083,170.018008 227.318343,170.018008 C229.458979,170.018008 231.232399,168.713334 232.638656,166.103945 C234.044913,163.510183 234.748031,160.236778 234.748031,156.283633 C234.748031,152.330488 234.044913,149.049271 232.638656,146.439883 C231.232399,143.84612 229.458979,142.549258 227.318343,142.549258 C225.193333,142.549258 223.427725,143.84612 222.021468,146.439883 C220.615211,149.018021 219.912093,152.236739 219.912093,156.096133 Z M275.737093,165.611758 L260.244906,165.611758 L256.213656,174.40082 L250.330843,174.40082 L268.237093,135.939883 L285.510531,174.40082 L279.533968,174.40082 L275.737093,165.611758 Z M273.510531,160.478945 L268.143343,148.174258 L262.518343,160.478945 L273.510531,160.478945 Z M302.407406,151.572695 L307.704281,151.572695 L307.704281,174.40082 L302.407406,174.40082 L302.407406,172.010195 C300.23552,174.041456 297.899606,175.05707 295.399593,175.05707 C292.243327,175.05707 289.633978,173.916457 287.571468,171.635195 C285.524583,169.307059 284.501156,166.400838 284.501156,162.916445 C284.501156,159.494553 285.524583,156.643019 287.571468,154.361758 C289.618353,152.080497 292.180828,150.939883 295.258968,150.939883 C297.915231,150.939883 300.29802,152.033622 302.407406,154.221133 L302.407406,151.572695 Z M289.891781,162.916445 C289.891781,165.103956 290.477712,166.885189 291.649593,168.260195 C292.852724,169.650827 294.368334,170.346133 296.196468,170.346133 C298.149603,170.346133 299.727712,169.674265 300.930843,168.330508 C302.133974,166.939876 302.735531,165.174269 302.735531,163.033633 C302.735531,160.892997 302.133974,159.12739 300.930843,157.736758 C299.727712,156.377376 298.165228,155.697695 296.243343,155.697695 C294.430834,155.697695 292.915224,156.385189 291.696468,157.760195 C290.493337,159.150827 289.891781,160.86956 289.891781,162.916445 Z M310.960531,151.572695 L316.233968,151.572695 L316.233968,153.611758 C317.202723,152.596128 318.062089,151.900822 318.812093,151.52582 C319.577722,151.135194 320.483963,150.939883 321.530843,150.939883 C322.921475,150.939883 324.374585,151.393003 325.890218,152.299258 L323.476156,157.127383 C322.476151,156.408629 321.499598,156.049258 320.546468,156.049258 C317.671454,156.049258 316.233968,158.221111 316.233968,162.564883 L316.233968,174.40082 L310.960531,174.40082 L310.960531,151.572695 Z M326.240218,134.814883 L331.513655,134.814883 L331.513655,153.471133 C333.388665,151.783625 335.458957,150.939883 337.724593,150.939883 C340.302731,150.939883 342.36521,151.775812 343.912093,153.447695 C345.2246,154.900828 345.880843,157.221117 345.880843,160.408633 L345.880843,174.40082 L340.607405,174.40082 L340.607405,160.90082 C340.607405,159.072686 340.28319,157.748481 339.634749,156.928164 C338.986308,156.107848 337.94335,155.697695 336.505843,155.697695 C334.662084,155.697695 333.365222,156.268002 332.615218,157.408633 C331.880839,158.564889 331.513655,160.549244 331.513655,163.361758 L331.513655,174.40082 L326.240218,174.40082 L326.240218,134.814883 Z M354.433968,151.572695 L354.433968,164.674258 C354.433968,168.455527 355.92614,170.346133 358.91053,170.346133 C361.89492,170.346133 363.387093,168.455527 363.387093,164.674258 L363.387093,151.572695 L368.66053,151.572695 L368.66053,164.791445 C368.66053,166.61958 368.43397,168.197689 367.980843,169.52582 C367.543341,170.713326 366.785536,171.783628 365.707405,172.736758 C363.926146,174.283641 361.660544,175.05707 358.91053,175.05707 C356.176142,175.05707 353.918352,174.283641 352.137093,172.736758 C351.043337,171.783628 350.269908,170.713326 349.81678,169.52582 C349.379278,168.463315 349.16053,166.885206 349.16053,164.791445 L349.16053,151.572695 L354.433968,151.572695 Z M385.182405,155.46332 L380.82303,157.783633 C380.135527,156.377376 379.283973,155.674258 378.268343,155.674258 C377.783965,155.674258 377.369907,155.834413 377.026155,156.154727 C376.682404,156.475041 376.51053,156.885193 376.51053,157.385195 C376.51053,158.2602 377.526145,159.127379 379.557405,159.986758 C382.354294,161.189889 384.237088,162.299253 385.205843,163.314883 C386.174598,164.330513 386.658968,165.697687 386.658968,167.416445 C386.658968,169.619581 385.846476,171.463313 384.221468,172.947695 C382.643335,174.353953 380.737104,175.05707 378.502718,175.05707 C374.674574,175.05707 371.963663,173.189902 370.369905,169.455508 L374.869905,167.36957 C375.494908,168.463326 375.971466,169.158631 376.299593,169.455508 C376.940221,170.049261 377.705838,170.346133 378.596468,170.346133 C380.377727,170.346133 381.268343,169.533641 381.268343,167.908633 C381.268343,166.971128 380.58085,166.096137 379.205843,165.283633 C378.67459,165.018007 378.143345,164.760197 377.612093,164.510195 C377.08084,164.260194 376.541783,164.002384 375.994905,163.736758 C374.463648,162.986754 373.385533,162.236762 372.76053,161.486758 C371.963651,160.533628 371.565218,159.307078 371.565218,157.80707 C371.565218,155.822686 372.244898,154.182077 373.60428,152.885195 C374.994912,151.588314 376.682395,150.939883 378.66678,150.939883 C381.58867,150.939883 383.760523,152.44768 385.182405,155.46332 Z M391.251155,167.627383 L395.938655,169.455508 L389.258968,182.83832 L385.696468,181.361758 L391.251155,167.627383 Z M227.151156,236.40082 L227.151156,200.21332 L234.744906,200.21332 C238.385549,200.21332 241.26052,200.572692 243.369906,201.291445 C245.635542,201.994574 247.690209,203.189875 249.533968,204.877383 C253.268362,208.28365 255.135531,212.760168 255.135531,218.30707 C255.135531,223.869598 253.190238,228.369553 249.299593,231.80707 C247.346458,233.525829 245.299604,234.72113 243.158968,235.393008 C241.158958,236.064886 238.323049,236.40082 234.651156,236.40082 L227.151156,236.40082 Z M232.612093,231.268008 L235.073031,231.268008 C237.526168,231.268008 239.56521,231.010198 241.190218,230.49457 C242.815226,229.947693 244.283962,229.080514 245.596468,227.893008 C248.283982,225.439871 249.627718,222.24459 249.627718,218.30707 C249.627718,214.338301 248.299607,211.119583 245.643343,208.65082 C243.252706,206.447684 239.729304,205.346133 235.073031,205.346133 L232.612093,205.346133 L232.612093,231.268008 Z M278.383968,226.228945 L262.024593,226.228945 C262.165219,228.103955 262.774588,229.596127 263.852718,230.705508 C264.930849,231.799263 266.313647,232.346133 268.001156,232.346133 C269.313662,232.346133 270.399589,232.033636 271.258968,231.408633 C272.102722,230.78363 273.06365,229.627391 274.141781,227.939883 L278.594906,230.424258 C277.907402,231.596139 277.180847,232.600035 276.415218,233.435977 C275.649589,234.271918 274.829285,234.959412 273.954281,235.498477 C273.079276,236.037542 272.133973,236.432069 271.118343,236.68207 C270.102713,236.932072 269.001162,237.05707 267.813656,237.05707 C264.407389,237.05707 261.673041,235.963331 259.610531,233.77582 C257.54802,231.572684 256.516781,228.650839 256.516781,225.010195 C256.516781,221.400802 257.516771,218.478957 259.516781,216.24457 C261.532416,214.041434 264.204264,212.939883 267.532406,212.939883 C270.891797,212.939883 273.548021,214.010185 275.501156,216.15082 C277.438665,218.275831 278.407406,221.221114 278.407406,224.986758 L278.383968,226.228945 Z M272.969906,221.916445 C272.235527,219.103931 270.462107,217.697695 267.649593,217.697695 C267.008965,217.697695 266.407408,217.795351 265.844906,217.990664 C265.282403,218.185978 264.770689,218.467225 264.309749,218.834414 C263.84881,219.201604 263.454282,219.643005 263.126156,220.158633 C262.798029,220.674261 262.548031,221.260192 262.376156,221.916445 L272.969906,221.916445 Z M280.749593,213.572695 L286.046468,213.572695 L286.046468,215.68207 C287.890227,213.853936 289.968331,212.939883 292.280843,212.939883 C294.937106,212.939883 297.007398,213.775812 298.491781,215.447695 C299.773037,216.869578 300.413656,219.189867 300.413656,222.408633 L300.413656,236.40082 L295.116781,236.40082 L295.116781,223.65082 C295.116781,221.400809 294.804284,219.846137 294.179281,218.986758 C293.569902,218.111754 292.460539,217.674258 290.851156,217.674258 C289.101147,217.674258 287.858972,218.252377 287.124593,219.408633 C286.405839,220.549264 286.046468,222.541431 286.046468,225.385195 L286.046468,236.40082 L280.749593,236.40082 L280.749593,213.572695 Z M303.669905,213.572695 L308.943343,213.572695 L308.943343,215.68207 C309.958973,214.619565 310.826152,213.900822 311.544905,213.52582 C312.310534,213.135194 313.271462,212.939883 314.427718,212.939883 C317.005856,212.939883 319.044898,214.064872 320.544905,216.314883 C322.201164,214.064872 324.443329,212.939883 327.271468,212.939883 C332.412119,212.939883 334.982405,216.057039 334.982405,222.291445 L334.982405,236.40082 L329.68553,236.40082 L329.68553,223.721133 C329.68553,221.533622 329.419908,219.986763 328.888655,219.080508 C328.341778,218.158628 327.443349,217.697695 326.193343,217.697695 C324.740211,217.697695 323.681628,218.244565 323.017562,219.33832 C322.353496,220.432076 322.021468,222.189871 322.021468,224.611758 L322.021468,236.40082 L316.724593,236.40082 L316.724593,223.791445 C316.724593,219.728925 315.55273,217.697695 313.208968,217.697695 C311.724586,217.697695 310.642565,218.252377 309.962874,219.361758 C309.283183,220.471139 308.943343,222.221121 308.943343,224.611758 L308.943343,236.40082 L303.669905,236.40082 L303.669905,213.572695 Z M355.06678,213.572695 L360.363655,213.572695 L360.363655,236.40082 L355.06678,236.40082 L355.06678,234.010195 C352.894894,236.041456 350.55898,237.05707 348.058968,237.05707 C344.902702,237.05707 342.293353,235.916457 340.230843,233.635195 C338.183958,231.307059 337.16053,228.400838 337.16053,224.916445 C337.16053,221.494553 338.183958,218.643019 340.230843,216.361758 C342.277728,214.080497 344.840202,212.939883 347.918343,212.939883 C350.574606,212.939883 352.957395,214.033622 355.06678,216.221133 L355.06678,213.572695 Z M342.551155,224.916445 C342.551155,227.103956 343.137087,228.885189 344.308968,230.260195 C345.512099,231.650827 347.027709,232.346133 348.855843,232.346133 C350.808978,232.346133 352.387087,231.674265 353.590218,230.330508 C354.793349,228.939876 355.394905,227.174269 355.394905,225.033633 C355.394905,222.892997 354.793349,221.12739 353.590218,219.736758 C352.387087,218.377376 350.824602,217.697695 348.902718,217.697695 C347.090209,217.697695 345.574599,218.385189 344.355843,219.760195 C343.152712,221.150827 342.551155,222.86956 342.551155,224.916445 Z M363.619905,213.572695 L368.893343,213.572695 L368.893343,215.611758 C369.862098,214.596128 370.721464,213.900822 371.471468,213.52582 C372.237097,213.135194 373.143338,212.939883 374.190218,212.939883 C375.58085,212.939883 377.03396,213.393003 378.549593,214.299258 L376.13553,219.127383 C375.135525,218.408629 374.158973,218.049258 373.205843,218.049258 C370.330828,218.049258 368.893343,220.221111 368.893343,224.564883 L368.893343,236.40082 L363.619905,236.40082 L363.619905,213.572695 Z M384.17303,196.814883 L384.17303,220.955508 L391.602718,213.572695 L398.680843,213.572695 L388.76678,223.158633 L399.407405,236.40082 L392.563655,236.40082 L385.01678,226.768008 L384.17303,227.611758 L384.17303,236.40082 L378.899593,236.40082 L378.899593,196.814883 L384.17303,196.814883 Z" id="Corrosion-Digital-IV-Copy"></path>
        </g>
    </g>
</svg>